<svg xmlns="http://www.w3.org/2000/svg" width="1000" height="207" viewBox="0 0 1000 207" fill="none"><path d="M266.772 156.922C266.019 156.922 265.267 156.17 265.267 155.417V64.524C265.267 63.7711 264.712 63.0183 263.959 63.0183H250.436C249.683 63.0183 248.93 62.2655 248.93 61.5127V46.2978C248.93 45.545 249.683 44.7922 250.436 44.7922H301.149C301.902 44.7922 302.456 45.3601 302.456 46.1129V61.5127C302.456 62.2655 301.902 63.0183 301.149 63.0183H287.242C286.49 63.0183 285.935 63.573 285.935 64.3259V155.417C285.935 156.17 285.367 156.922 284.627 156.922H266.772V156.922Z" fill="black"></path><path d="M313.537 46.2978C313.537 45.545 314.289 44.7922 315.042 44.7922H332.699C333.452 44.7922 334.205 45.3601 334.205 46.1129V155.615C334.205 156.368 333.637 156.922 332.884 156.922H315.042C314.289 156.922 313.537 156.17 313.537 155.417V46.2978V46.2978Z" fill="black"></path><path d="M404.622 44.7922C405.375 44.7922 406.128 45.3469 406.128 46.0997V155.615C406.128 156.355 405.56 156.922 404.807 156.922H386.595C385.842 156.922 385.288 156.553 385.09 155.8L369.691 110.908C369.321 109.785 368.185 109.785 368.185 111.093V155.417C368.185 156.17 367.617 156.922 366.878 156.922H349.036C348.283 156.922 347.53 156.17 347.53 155.417V46.1129C347.53 45.3601 348.283 44.8054 349.036 44.8054H367.063C367.815 44.8054 368.37 45.1752 368.568 45.928L383.967 91.3877C384.35 92.5103 385.473 92.5103 385.473 91.1896V46.1129C385.473 45.3601 386.225 44.8054 386.978 44.8054H404.635L404.622 44.7922Z" fill="black"></path><path d="M441.072 72.7785C441.441 74.0861 442.577 74.0861 442.947 72.7785L451.954 45.928C452.152 45.1752 452.707 44.8054 453.459 44.8054H471.301C472.239 44.8054 472.807 45.3601 472.424 46.496L452.707 101.148C452.522 101.901 452.337 102.271 452.337 102.838V155.615C452.337 156.368 451.782 156.936 451.029 156.936H433.187C432.435 156.936 431.695 156.183 431.695 155.43V102.825C431.695 102.271 431.497 101.888 431.325 101.135L411.581 46.4827C411.212 45.3601 411.78 44.7922 412.717 44.7922H430.559C431.312 44.7922 431.867 45.1752 432.065 45.9148L441.072 72.7653V72.7785Z" fill="black"></path><path d="M585.737 44.7922C586.489 44.7922 587.242 45.3469 587.242 46.0997V155.615C587.242 156.355 586.674 156.922 585.921 156.922H572.015C571.275 156.922 570.523 156.17 570.523 155.417V113.153C570.523 112.018 569.387 111.661 569.017 112.968L556.431 155.787C556.246 156.724 555.494 156.909 554.741 156.909H547.24C546.487 156.909 545.734 156.711 545.536 155.787L532.963 112.968C532.594 111.661 531.458 112.018 531.458 113.153V155.602C531.458 156.341 530.903 156.909 530.137 156.909H516.244C515.491 156.909 514.738 156.156 514.738 155.404V46.1129C514.738 45.3601 515.491 44.8054 516.244 44.8054H537.467C538.219 44.8054 538.774 45.1752 538.972 46.1129L550.053 96.2612C550.422 97.7668 551.36 97.7668 551.743 96.2612L562.823 46.1129C563.008 45.1752 563.563 44.8054 564.316 44.8054H585.723L585.737 44.7922Z" fill="black"></path><path d="M598.15 46.2978C598.15 45.545 598.903 44.7922 599.656 44.7922H617.313C618.066 44.7922 618.819 45.3601 618.819 46.1129V155.615C618.819 156.368 618.251 156.922 617.498 156.922H599.656C598.903 156.922 598.15 156.17 598.15 155.417V46.2978Z" fill="black"></path><path d="M678.315 117.301C687.889 125 687.705 136.636 687.705 145.287V155.047C687.705 156.183 686.952 156.923 685.829 156.923H668.925C667.802 156.923 667.05 156.17 667.05 155.047V145.287C667.05 128.012 657.105 128.566 657.105 128.566H653.156C652.034 128.566 651.281 129.319 651.281 130.442V155.047C651.281 156.183 650.528 156.923 649.406 156.923H632.501C631.379 156.923 630.626 156.17 630.626 155.047V46.681C630.626 45.5584 631.379 44.8056 632.501 44.8056H650.528C672.306 44.8056 687.718 60.7732 687.718 85.7615C687.718 103.037 681.154 111.688 678.143 114.87C677.205 115.808 677.205 116.561 678.328 117.314M651.294 105.48C651.294 106.603 652.047 107.54 653.17 107.355C657.871 106.603 668.568 103.222 668.568 86.6992C668.568 70.1769 657.858 66.6109 653.17 65.8581C652.047 65.6599 651.294 66.6109 651.294 67.7335V105.48Z" fill="black"></path><path d="M752.403 154.862C752.601 155.985 751.848 156.936 750.712 156.936H733.438C732.302 156.936 731.748 156.553 731.563 155.232L730.255 144.521C730.071 143.213 729.503 142.83 728.38 142.83H718.237C717.115 142.83 716.547 143.2 716.362 144.521L714.672 155.232C714.487 156.539 713.919 156.936 712.796 156.936H695.707C694.585 156.936 693.832 155.985 694.017 154.862L709.957 46.4827C710.155 45.1752 710.71 44.7922 711.832 44.7922H733.808C734.931 44.7922 735.498 45.3469 735.683 46.4827L752.39 154.849L752.403 154.862ZM726.676 125.185C727.799 125.185 728.552 124.248 728.367 123.125L724.233 94.3858C724.048 92.8801 722.173 92.8801 721.975 94.3858L717.841 123.125C717.643 124.248 718.594 125.185 719.717 125.185H726.663H726.676Z" fill="black"></path><path d="M785.67 42.9169C814.223 42.9169 814.975 65.4618 814.975 87.0558C814.975 88.1784 814.223 88.9312 813.1 88.9312H795.628C794.505 88.9312 793.752 88.1784 793.752 87.0558C793.752 72.5937 793.198 65.0788 784.746 65.0788C776.293 65.0788 773.097 78.405 773.097 101.135C773.097 123.865 776.663 136.636 784.746 136.636C793.383 136.636 793.752 129.121 793.752 114.659C793.752 113.536 794.505 112.784 795.628 112.784H813.1C814.223 112.784 814.975 113.536 814.975 114.659C814.975 136.253 814.223 158.798 785.67 158.798C757.118 158.798 752.429 126.493 752.429 101.135C752.429 75.7767 757.87 42.9169 785.67 42.9169Z" fill="black"></path><path d="M874.906 138.894C876.029 138.894 876.782 139.647 876.782 140.77V155.034C876.782 156.17 876.029 156.909 874.906 156.909H823.441C822.305 156.909 821.565 156.355 821.565 155.034L821.367 46.6676C821.367 45.545 822.12 44.7922 823.242 44.7922H840.147C841.283 44.7922 842.022 45.3601 842.022 46.6676L842.207 137.006C842.207 138.327 842.96 138.881 844.082 138.881H874.88L874.906 138.894Z" fill="black"></path><path d="M882.633 46.681C882.633 45.5584 883.386 44.8056 884.508 44.8056H932.963C934.085 44.8056 934.838 45.5584 934.838 46.681V63.9562C934.838 65.0788 934.072 65.8316 932.963 65.8316H905.163C904.041 65.8316 903.288 66.5845 903.288 67.7071V88.7332C903.288 90.0539 904.027 90.6086 905.163 90.6086H932.963C934.085 90.6086 934.838 91.3614 934.838 92.484V109.574C934.838 110.71 934.072 111.45 932.963 111.45H905.163C904.041 111.45 903.288 112.004 903.288 113.325V133.981C903.288 135.104 904.027 135.857 905.163 135.857H932.963C934.085 135.857 934.838 136.61 934.838 137.732V155.008C934.838 156.13 934.072 156.883 932.963 156.883H884.508C883.386 156.883 882.633 156.13 882.633 155.008V46.681V46.681Z" fill="black"></path><path d="M944.795 134.391V119.929C944.795 119.176 945.548 118.423 946.301 118.423H964.143C964.882 118.423 965.635 118.978 965.635 119.731V134.378C965.635 137.006 967.51 141.325 972.595 141.325C977.679 141.325 979.158 137.006 979.158 134.378V114.844C979.158 110.895 975.21 110.895 975.21 110.895H965.635C940.846 110.895 941.414 86.2897 941.414 86.2897V67.3108C941.414 67.3108 941.414 42.9169 969.016 42.9169C996.617 42.9169 996.618 67.3372 996.618 67.3372V81.7992C996.618 82.5521 996.063 83.3049 995.297 83.3049H977.085C976.332 83.3049 975.778 82.5521 975.778 81.7992V67.3372C975.778 64.709 973.902 60.3902 968.818 60.3902C963.733 60.3902 962.254 64.709 962.254 67.3372V86.3162C962.254 90.2519 966.203 90.2519 966.203 90.2519L978.974 90.45C1000.57 92.5104 999.998 114.87 999.998 114.87V134.404C999.998 134.404 999.998 158.824 972.397 158.824C944.795 158.824 944.795 134.404 944.795 134.404" fill="black"></path><path d="M13.1826 106.558C19.2734 107.838 29.4534 110.32 52.5394 113.071C53.912 113.234 55.3037 113.321 56.6762 113.456C53.607 116.245 50.3281 118.054 46.9824 119.728C37.7842 124.336 28.4716 128.703 19.4069 133.581C19.2448 133.667 19.0923 133.763 18.9398 133.869C16.0803 135.957 17.5768 140.642 21.0845 140.892C21.5515 140.93 22.0186 140.911 22.4571 140.834C27.1086 140.026 31.5981 138.265 36.1352 136.871C45.1618 134.1 54.1884 131.31 63.2055 128.54C62.8529 131.108 61.7853 132.551 60.6129 133.898C53.4545 142.123 46.1913 150.271 39.1663 158.602C38.8041 159.025 38.5086 159.506 38.2513 160.016C37.0217 162.45 34.9437 164.451 36.8977 166.336L37.5554 167.558C37.9653 167.943 38.2799 168.905 38.8136 168.732C40.272 168.26 44.0466 166.875 45.1904 165.99C48.965 163.085 52.4441 159.785 56.1425 156.765C63.2437 150.945 70.402 145.211 77.5414 139.449C77.875 142.277 77.3984 144.288 76.7502 146.25C72.6325 158.621 68 170.829 64.5019 183.383C63.9109 185.499 65.7887 187.106 67.1898 187.818C68.2193 188.337 70.85 188.318 72.1273 186.952C77.3603 181.392 79.1618 173.349 82.7457 166.577C85.6148 161.171 88.6555 155.86 91.6103 150.502C92.3729 150.675 92.3061 150.656 93.0687 150.829C93.9456 163.912 94.8225 176.995 95.709 190.3C95.8329 192.262 97.0911 195.177 98.3684 195.812H100.971C103.782 195.812 104.574 191.627 104.85 188.799C106.213 175.187 107.548 161.825 108.882 148.472C111.961 151.502 113.781 154.764 115.449 158.102C121.006 169.232 126.382 180.468 132.168 191.483C132.311 191.762 132.521 192.012 132.778 192.233C135.094 194.263 138.907 192.714 139.107 189.626C139.126 189.318 139.107 189.03 139.031 188.741C137.191 181.315 134.789 174.023 132.645 166.664C130.51 159.362 128.441 152.032 126.344 144.72C127.002 144.297 126.954 144.326 127.621 143.903C138.087 153.157 148.553 162.411 159.381 171.983C160.258 172.753 161.564 172.734 162.413 171.945L162.451 171.906C165.015 169.482 165.282 165.471 163.061 162.729C154.635 152.311 146.618 142.412 138.602 132.522C141.5 132.109 143.492 132.609 145.436 133.273C157.151 137.226 168.818 141.344 180.59 145.124C183.735 146.135 185.727 145.442 187.281 142.922C188.768 140.517 186.862 138.775 184.117 137.236C171.468 130.175 158.686 123.383 145.97 116.447C144.788 115.803 143.797 114.822 141.528 113.08C158.381 111.897 173.889 110.801 189.616 109.704C191.294 109.588 195.478 108.578 195.478 106.866V104.038C195.478 100.738 190.122 100.401 186.871 100.065C174.251 98.766 161.879 97.4865 149.507 96.1975C151.06 93.9464 152.633 92.9459 154.301 92.1186C165.377 86.5775 176.539 81.2192 187.51 75.4665C190.56 73.8696 191.58 70.7239 190.236 68.9634C188.596 66.8182 187.434 66.4238 183.935 67.2318C178.95 68.3766 174.146 70.3391 169.237 71.8205C159.505 74.7739 149.745 77.631 139.994 80.5266C139.593 79.9013 139.632 79.959 139.231 79.3337C149.001 68.0207 158.781 56.698 168.513 45.4331C169.695 44.067 170.991 40.5461 169.981 39.055C168.522 36.9002 164.338 37.8429 162.27 39.4014C158.695 42.0853 155.121 44.7597 151.632 47.5398C144.283 53.408 137.048 59.4204 129.757 65.3656C131.692 55.2069 134.77 45.9814 137.792 36.7366C139.755 30.7338 141.805 24.7502 143.416 18.6415C143.473 18.4106 143.492 18.1605 143.473 17.9008C143.282 15.4573 140.556 14.0913 138.354 15.1399C137.801 15.3996 137.277 15.7074 136.82 16.0922C135.571 17.1216 134.875 18.8916 134.065 20.4116C127.679 32.4173 121.33 44.4422 114.944 56.4479C114.067 58.1025 113.066 59.6994 112.123 61.3156C111.322 61.1232 111.379 61.1328 110.579 60.95C109.711 47.0107 108.796 33.0811 108.005 19.1418C107.814 15.7459 108.215 9.77195 103.249 9.72385C98.2921 9.67575 98.2635 15.8036 97.9966 19.1033C97.5105 25.2312 97.1388 31.3687 96.5192 37.4774C95.8138 44.548 94.8893 51.5994 94.06 58.6605C88.6078 50.6182 84.5282 42.4316 80.4676 34.2354C77.4842 28.2326 74.7486 22.9994 71.4791 17.1697C71.3362 16.9292 70.3544 15.8325 70.078 15.7555C67.7522 15.0533 66.8276 16.9869 65.8268 17.9008C65.3502 18.3337 65.1119 19.844 65.1024 20.4789C65.0833 22.4895 65.0356 21.7199 65.4264 22.9994C67.6188 30.147 69.9255 37.2561 72.051 44.4326C74.2624 51.9361 76.3118 59.4878 78.4374 67.0202C77.7892 67.4338 77.8464 67.405 77.1887 67.8186C67.0564 58.901 56.9241 49.9833 47.0301 41.2869C44.4469 39.0069 39.7192 35.2455 37.4506 35.8805C37.422 35.8805 35.2583 37.8429 35.2392 37.8622C34.3623 39.1031 33.981 40.2094 34.7722 41.662C42.0068 54.7548 56.152 68.2323 65.3693 79.6512C62.6813 80.0456 60.6987 79.555 58.7732 78.9104C45.6003 74.5045 37.1551 71.4357 23.9154 67.2703C23.7534 67.2222 21.0178 66.7893 20.8462 66.7701C17.4243 66.2314 15.4035 70.5411 17.6626 73.1962C17.9485 73.5329 19.1019 74.5526 19.4641 74.7642C28.6718 80.1418 34.6673 84.49 44.0466 89.5789C45.7433 90.5025 48.6219 92.4168 51.5386 94.2542L17.186 96.3129C17.0239 96.3321 16.4139 96.4957 16.2519 96.5342C12.0102 97.6116 10.0943 100.142 10.0943 100.142C9.65585 100.43 9.27457 103.374 9.7607 104.442" fill="black"></path><path d="M96.643 203.219C96.8146 203.623 97.7773 205.807 99.6455 205.999C101.571 206.201 103.315 204.181 103.735 202.248C104.097 200.564 103.649 198.034 101.628 197.139C99.9505 196.389 97.9203 197.091 96.8622 198.486C95.4134 200.41 96.4619 202.796 96.643 203.219" fill="black"></path><path d="M105.861 2.20088C105.622 1.83532 104.288 -0.136766 102.41 0.00753349C100.485 0.161452 99.1216 2.46062 99.0548 4.44232C98.9976 6.16429 99.8841 8.55966 102.038 9.07913C103.821 9.51203 105.699 8.45384 106.49 6.89541C107.576 4.74054 106.127 2.58568 105.87 2.20088" fill="black"></path><path d="M66.7801 9.55065C66.456 9.26205 64.6926 7.66514 62.9102 8.27119C61.0801 8.89649 60.308 11.4554 60.7178 13.3986C61.0801 15.0821 62.5194 17.1985 64.7307 17.1696C66.5608 17.1408 68.1241 15.6689 68.5149 13.947C69.0486 11.5901 67.1232 9.85848 66.7801 9.55065" fill="black"></path><path d="M34.2668 29.9064C33.8951 29.6851 31.8553 28.473 30.2253 29.4158C28.5477 30.3874 28.2904 33.0617 29.072 34.8799C29.7583 36.4576 31.5693 38.2469 33.7426 37.7755C35.5345 37.3907 36.7737 35.6302 36.8213 33.8698C36.8785 31.4552 34.6576 30.1373 34.2668 29.8968" fill="black"></path><path d="M14.8036 63.0278C14.4414 62.7969 12.4397 61.5271 10.7811 62.4218C9.07495 63.3357 8.74133 66.0004 9.47528 67.8474C10.1044 69.4443 11.8773 71.2913 14.0506 70.8873C15.8616 70.5506 17.1484 68.8286 17.2532 67.0778C17.3867 64.6632 15.2039 63.2779 14.8131 63.0278" fill="black"></path><path d="M203.666 109.213C204.038 108.982 206.059 107.751 206.011 105.856C205.963 103.903 203.752 102.412 201.798 102.239C200.101 102.085 197.671 102.854 197.051 104.999C196.536 106.779 197.48 108.713 198.986 109.588C201.064 110.791 203.266 109.444 203.666 109.203" fill="black"></path><path d="M197.033 70.06C197.404 69.8291 199.425 68.5977 199.377 66.7026C199.33 64.7498 197.118 63.2587 195.164 63.0855C193.468 62.9316 191.037 63.7012 190.418 65.8464C189.903 67.6261 190.846 69.5597 192.352 70.4352C194.43 71.6377 196.632 70.2909 197.033 70.0504" fill="black"></path><path d="M177.873 37.1982C178.102 36.8327 179.351 34.7932 178.445 33.129C177.521 31.4166 174.89 31.0992 173.06 31.8399C171.478 32.4844 169.667 34.2834 170.076 36.4863C170.42 38.3045 172.135 39.5936 173.88 39.6802C176.272 39.7956 177.626 37.583 177.873 37.1886" fill="black"></path><path d="M147.858 10.5896C147.877 10.1567 147.982 7.771 146.4 6.75128C144.77 5.71233 142.31 6.72242 141.081 8.27123C140.013 9.61802 139.289 12.0711 140.709 13.7931C141.882 15.2168 144.007 15.5054 145.57 14.7262C147.715 13.6488 147.839 11.0514 147.858 10.5896" fill="black"></path><path d="M138.03 200.218C138.374 200.487 140.242 201.949 141.977 201.228C143.759 200.477 144.35 197.861 143.807 195.956C143.33 194.301 141.748 192.3 139.546 192.474C137.716 192.628 136.258 194.205 135.991 195.946C135.619 198.332 137.659 199.929 138.021 200.218" fill="black"></path><path d="M169.638 177.245C170.048 177.101 172.288 176.341 172.641 174.475C173.003 172.561 171.163 170.627 169.295 170.03C167.665 169.521 165.139 169.742 164.071 171.704C163.185 173.33 163.7 175.427 164.986 176.611C166.759 178.236 169.2 177.399 169.638 177.245" fill="black"></path><path d="M192.552 148.318C192.981 148.338 195.355 148.405 196.336 146.789C197.347 145.124 196.298 142.662 194.754 141.44C193.41 140.382 190.96 139.699 189.283 141.151C187.891 142.364 187.634 144.509 188.435 146.067C189.521 148.222 192.104 148.299 192.562 148.318" fill="black"></path><path d="M2.47855 98.3619C2.09728 98.5735 0.0193477 99.7183 0.000284115 101.623C-0.0283113 103.576 2.10681 105.163 4.06083 105.404C5.74796 105.625 8.20717 104.961 8.92205 102.845C9.51303 101.084 8.64563 99.1122 7.1682 98.1695C5.14746 96.8804 2.88842 98.131 2.47855 98.3523" fill="black"></path><path d="M60.8229 193.792C60.9468 194.205 61.6712 196.485 63.5108 196.88C65.3981 197.284 67.3617 195.475 67.9813 193.59C68.5246 191.954 68.353 189.395 66.4276 188.279C64.8453 187.356 62.7483 187.827 61.5568 189.107C59.9078 190.867 60.6894 193.339 60.8324 193.792" fill="black"></path><path d="M28.8913 169.761C28.7578 170.175 28.0143 172.445 29.2821 173.849C30.5784 175.292 33.2187 174.975 34.8105 173.821C36.2022 172.811 37.5461 170.636 36.6311 168.597C35.8781 166.913 33.905 166.057 32.1988 166.384C29.8444 166.837 29.0438 169.309 28.9008 169.751" fill="black"></path><path d="M9.91346 138.323C9.64657 138.67 8.2168 140.565 8.95075 142.315C9.71329 144.105 12.3059 144.682 14.1932 144.114C15.8232 143.624 17.7963 142.008 17.5961 139.785C17.4341 137.938 15.8518 136.486 14.1265 136.236C11.7626 135.88 10.1899 137.958 9.91346 138.323Z" fill="black"></path></svg>